<svg xmlns="http://www.w3.org/2000/svg" xmlns:xlink="http://www.w3.org/1999/xlink" version="1.1" x="0px" y="0px" viewBox="0 0 100 100" enable-background="new 0 0 100 100" xml:space="preserve"><path d="M90.062,80.203l-1.746-2.117l-2.014-3.357l-0.348-1.676L44.963,34.722l-0.06-0.054l-0.868-0.108L43.4,33.562l1.528-1.853  V3.783h-2.625l-0.072,0.09c-0.4,0.49-1.072,1.367-1.072,1.738c0,0.076-0.044,0.198-0.106,0.335l-0.47-2.163H11.53v3.484l0.04,0.061  c0.015,0.021,1.401,2.213,0.532,5.688l-0.008,0.034l0.111,2.878c-1.108,1.27-2.368,2.846-2.252,3.313  c0.076,0.303,0.034,1.501-0.011,2.187l-0.006,0.087l0.052,0.071c0.101,0.141,0.996,1.386,1.258,1.622  c0.318,0.287,3.509,3.614,3.702,3.999c0.12,0.242,0.081,1.823-0.025,3.175l0.102,4.751l0.089,0.07  c2.078,1.69,4.316,3.64,4.462,3.972c0.129,0.321,0.53,0.965,0.921,1.587c0.272,0.438,0.614,0.982,0.657,1.114  c0.062,0.183,0.041,1.386-0.012,2.396l-0.008,0.163l3.632,1.754l0.903-1.581l0.787,0.394v0.866l0.006,0.055  c0.077,0.347,0.303,1.168,0.728,1.311c0.116,0.039,0.375,0.383,0.584,0.769l-0.481,0.725l-1.188-0.55L25.75,47.23l-1.264-0.18  l0.618,3.826l1.771,3.108l0.085,0.03c0,0,1.926,0.68,2.25,0.788c0.191,0.11,0.885,1.133,1.466,2.087l-1.387,1.067l-0.122,3.297  l0.102,0.077c0.058,0.041,1.398,1.044,2.105,1.28c0.441,0.146,1.722,1.444,2.456,2.261l0.573,2.29l2.309,1.649  c-0.096,0.383-0.244,1.191,0.107,1.543c0.215,0.215,0.493,0.953,0.618,1.365l0.052,0.178h2.049l-0.529,3.824v1.941h0.639  l0.453,1.244h4.755c0.293,0.135,1.529,0.68,2.089,0.68c0.239,0,0.464-0.08,0.664-0.15c0.15-0.053,0.294-0.102,0.399-0.102  c0.06,0,0.122,0.01,0.196,0.133c0.349,0.578,1.879,1.285,2.214,1.434l1.393,1.512h3.934c0.348,0.523,0.85,1.318,0.918,1.529  c0.066,0.199,0.033,0.852-0.012,1.252l-0.029,0.271h2.768l1.631,1.738l1.314,1.316h1.174l0.635,1.793l0.988,1.867v3.09l1.543,0.945  l19.695-1.832l0.615-1.965l0.01-1.086l-1.131-0.113l-0.002-0.588l-0.121-1.594l-0.189-0.697l2.139-2.367l-0.568-3.072l1.154-1.678  L90.062,80.203z M86.604,82.793l0.561,3.033l-2.158,2.385l0.254,0.91l0.113,1.529v1.014l1.131,0.113v0.531l-0.506,1.619  l-19.207,1.787l-1.17-0.719v-2.936l-1.031-1.943l-0.736-2.086h-1.314l-1.168-1.168l-1.77-1.885h-2.438  c0.029-0.352,0.055-0.918-0.037-1.189c-0.115-0.354-0.891-1.525-1.045-1.756l-0.074-0.109h-3.982l-1.283-1.391l-0.082-0.059  c-0.67-0.295-1.82-0.896-2.036-1.258c-0.147-0.246-0.354-0.371-0.617-0.371c-0.189,0-0.377,0.066-0.561,0.131  c-0.171,0.059-0.349,0.121-0.503,0.121c-0.419,0-1.537-0.475-1.933-0.656l-4.567-0.023l-0.453-1.242h-0.492l-0.002-1.42l0.604-4.348  h-2.249c-0.115-0.352-0.388-1.102-0.687-1.398c-0.137-0.139-0.078-0.758,0.062-1.227l0.051-0.168l-2.444-1.746l-0.558-2.232  l-0.042-0.046c-0.201-0.226-1.985-2.205-2.705-2.444C31,61.97,29.991,61.25,29.666,61.015l0.104-2.809l1.552-1.194l-0.112-0.188  c-0.642-1.066-1.479-2.363-1.829-2.48c-0.296-0.1-1.796-0.628-2.172-0.76l-1.629-2.832l-0.506-3.123l0.318,0.045l0.323,0.863  l1.753,0.809l0.874-1.311l-0.063-0.127c-0.117-0.234-0.53-1.007-0.933-1.139c-0.108-0.051-0.301-0.497-0.398-0.928V44.7  l-1.475-0.736l-0.906,1.584l-2.928-1.412c0.031-0.645,0.088-2.091-0.02-2.414c-0.06-0.178-0.308-0.581-0.708-1.22  c-0.36-0.575-0.768-1.229-0.881-1.509c-0.226-0.564-3.406-3.191-4.521-4.099l-0.099-4.498c0.054-0.68,0.214-2.932-0.024-3.409  c-0.266-0.529-3.636-3.983-3.812-4.143c-0.161-0.146-0.762-0.952-1.138-1.474c0.024-0.399,0.101-1.814-0.005-2.223  c0.022-0.305,1.162-1.779,2.205-2.972l0.062-0.073l-0.114-3.003c0.83-3.367-0.327-5.569-0.567-5.975V4.273h28.169l0.646,2.973  l0.32-0.48c0.082-0.124,0.493-0.761,0.493-1.149c0.018-0.167,0.461-0.81,0.889-1.343h1.9v27.26l-1.641,1.991l0.95,1.491l0.939,0.117  l40.82,38.174l0.324,1.561l2.086,3.5l1.398,1.699l-1.33,0.758L86.604,82.793z"/></svg>
