<svg xmlns="http://www.w3.org/2000/svg" xmlns:xlink="http://www.w3.org/1999/xlink" version="1.1" x="0px" y="0px" viewBox="0 0 100 100" enable-background="new 0 0 100 100" xml:space="preserve"><g><path fill="none" d="M80.17,49.899c-2.948,0-5.347,2.398-5.347,5.345s2.398,5.346,5.347,5.346c2.946,0,5.345-2.398,5.345-5.346   S83.116,49.899,80.17,49.899z M80.17,59.613c-2.409,0-4.37-1.959-4.37-4.369s1.961-4.369,4.37-4.369s4.369,1.958,4.369,4.369   S82.579,59.613,80.17,59.613z"/><polygon fill="none" points="65.141,52.68 66.797,49.671 66.444,49.693 64.791,52.693  "/><polygon fill="none" points="65.439,49.752 65.087,49.774 63.449,52.748 63.707,52.738 63.797,52.734  "/><path fill="none" d="M80.17,53.729c-0.837,0-1.517,0.68-1.517,1.516s0.68,1.516,1.517,1.516c0.835,0,1.515-0.68,1.515-1.516   S81.005,53.729,80.17,53.729z M80.17,55.977c-0.405,0-0.733-0.328-0.733-0.732s0.328-0.732,0.733-0.732   c0.403,0,0.731,0.328,0.731,0.732S80.573,55.977,80.17,55.977z"/><path fill="none" d="M52.369,38.549l-1.403,0.821l5.011,4.9l0.021,0.001c1.552-0.16,2.358-0.528,2.436-0.739   c0.014-0.037-0.029-0.092-0.067-0.132L52.369,38.549z"/><path fill="none" d="M40.295,47.546h3.439c0.082,0,0.148-0.173,0.148-0.384c0-0.214-0.066-0.387-0.148-0.387h-3.439   c-0.08,0-0.146,0.173-0.146,0.387C40.149,47.374,40.215,47.546,40.295,47.546z"/><path fill="none" d="M27.497,49.816c-2.948,0-5.347,2.399-5.347,5.346s2.398,5.346,5.347,5.346c2.946,0,5.345-2.398,5.345-5.346   S30.443,49.816,27.497,49.816z M27.497,59.531c-2.409,0-4.37-1.961-4.37-4.369c0-2.41,1.961-4.37,4.37-4.37s4.369,1.959,4.369,4.37   C31.866,57.57,29.906,59.531,27.497,59.531z"/><path fill="none" d="M27.497,53.646c-0.837,0-1.517,0.68-1.517,1.516s0.68,1.516,1.517,1.516c0.835,0,1.515-0.68,1.515-1.516   S28.332,53.646,27.497,53.646z M27.497,55.895c-0.405,0-0.733-0.328-0.733-0.732s0.328-0.734,0.733-0.734   c0.403,0,0.731,0.33,0.731,0.734S27.9,55.895,27.497,55.895z"/><path fill="none" d="M36.297,43.707c0.012-0.251,0.123-0.449,0.383-0.476C36.387,43.255,36.281,43.46,36.297,43.707z"/><path fill="none" d="M76.201,47.646c0.013-0.008,0.025-0.018,0.038-0.025c-0.003,0.002-0.006,0.003-0.009,0.005   C76.221,47.632,76.212,47.639,76.201,47.646z"/><path fill="none" d="M69.627,49.205l-5.402,0.321c-0.322,0.019-0.611,0.194-0.775,0.471l-0.947,1.591   c-0.184,0.309-0.184,0.68,0,0.99c0.178,0.299,0.486,0.473,0.83,0.473c0.014,0,0.027,0,0.041-0.002l5.482-0.219   c0.35-0.014,0.666-0.215,0.824-0.525l0.867-1.692c0.16-0.313,0.143-0.676-0.051-0.971S69.979,49.182,69.627,49.205z M70.281,50.476   l-0.867,1.692c-0.111,0.215-0.328,0.354-0.57,0.365l-0.895,0.035l1.688-3.065l-0.354,0.021l-1.682,3.058l-1.08,0.043l1.672-3.036   l-0.351,0.021l-1.669,3.029l0.148-0.006l-2.615,0.105l-0.258,0.01l0,0l-0.088,0.004c-0.25,0.01-0.475-0.113-0.604-0.328   c-0.127-0.213-0.127-0.471,0-0.684l0.947-1.591c0.113-0.19,0.314-0.313,0.537-0.325l0.845-0.05l0.001-0.003l0.354-0.021   l-0.002,0.003l1.005-0.06l0.003-0.006l0.354-0.022l-0.004,0.007l1.046-0.062l0.005-0.01l0.352-0.022l-0.006,0.012l1.09-0.065   l0.008-0.014l0.355-0.022l-0.009,0.016l0.009-0.001c0.242-0.014,0.467,0.099,0.6,0.303S70.393,50.26,70.281,50.476z"/><path d="M92.033,47.049c-0.643-0.497-1.783-1.005-3.262-1.44c0.293,3.655,4.3,4.511,4.618,4.573   C93.507,49.066,93.11,47.884,92.033,47.049z"/><path d="M9.818,49.597c0.311-0.613,0.59-4.111,2.031-4.641c-1.463,0.271-1.93,0.525-2.242,1.145   c-0.295,0.582-0.834,2.782-1.096,3.888C9.019,50.015,9.632,49.966,9.818,49.597z"/><path d="M7.445,51.514c-0.486,0.211-0.709,1.107-0.76,1.457c-0.049,0.348-0.186,1.506,0,1.879c0.188,0.373,0.908,0.922,1.93,0.922   s1.816,0,1.816,0s-0.709-2.664-1.791-4.457C8.64,51.314,7.929,51.303,7.445,51.514z"/><path d="M39.842,48.416c0.001,0,0.002,0,0.002,0c0.011,0.072,0.022,0.144,0.031,0.211c0.104,0.683,1.215,3.719,1.459,4.299   s0.416,0.818,2.917,0.818c2.499,0,13.427,0,13.427,0s0-4.578,0-5.694h-0.001c0.003-1.076,0.317-2.985-2.268-2.985   c-0.354,0-0.599,0-1.089,0.112c0,0-8.312,0.738-11.832,0.604c-0.926-0.035-1.612-0.043-2.127-0.046   C39.711,46.893,39.75,47.764,39.842,48.416z M40.295,46.776h3.439c0.082,0,0.148,0.173,0.148,0.387   c0,0.211-0.066,0.384-0.148,0.384h-3.439c-0.08,0-0.146-0.173-0.146-0.384C40.149,46.949,40.215,46.776,40.295,46.776z"/><path d="M88.125,45.609c-2.691-0.805-6.373-1.397-10.322-1.397c-6.424,0-14.875-0.586-16.119-0.586   c-0.926,0-2.208-0.22-2.805-0.332c-0.035-0.082-0.085-0.167-0.175-0.26l-6.082-4.922l-0.177-0.144l-0.03-0.024l-0.004,0.003   l-0.155-0.1c0,0-1.998,1.05-2.222,1.273c-0.016,0.017-0.031,0.036-0.047,0.056c-0.18,0.245-0.201,0.69-0.201,0.69l4.785,4.527   l0.039,0.037c0.145,0.015,0.283,0.028,0.418,0.041c0.176,0.025,0.339,0.041,0.492,0.051l0.689,0.074l0.646,0.063   c1.712,0.459,1.593,2.168,1.593,3.198c0,0.005,0,0.011,0,0.017c0,1.222,0,6.231,0,6.231s-11.75,0-14.437,0   c-2.689,0-2.875-0.262-3.137-0.895c-0.262-0.635-1.457-3.958-1.568-4.706c-0.012-0.081-0.025-0.166-0.037-0.255   c-0.367,0.003-0.664,0.003-0.885-0.001c-2.129-0.038-0.336-3.46-13.666-2.641c-5.809,0.356-10.383,1.084-13.695,1.793   c-0.332,1.096-0.49,2.265-0.656,2.597c-0.186,0.374-0.799,0.424-1.307,0.396c-0.092,0.394-0.148,0.651-0.148,0.651   c1.082,1.791,1.791,4.455,1.791,4.455s0.324,1.021,1.668,1.195c0.887,0.115,2.969,0.262,5.24,0.377   c0.041,0.002,0.084,0.004,0.125,0.006c2.453,0,1.182-5.105,3.871-7.809c2.688-2.705,10.381-3.32,12.471,1.132   c2.092,4.453,1.49,7.16,2.986,7.16c0.105,0.002,0.213,0.004,0.318,0.006c6.049,0.109,12.404,0.199,16.56,0.199   c7.428,0,12.596,0,15.16,0c0.07,0,0.141,0,0.207,0c0.006-0.006,0.014-0.014,0.02-0.02c0.161-0.025,0.316-0.076,0.466-0.145   c0.002,0,0.003,0,0.004-0.002c0.168-0.078,0.325-0.184,0.475-0.301c0.049-0.039,0.093-0.082,0.14-0.123   c0.095-0.084,0.188-0.17,0.273-0.26c0.05-0.053,0.096-0.105,0.142-0.16c0.071-0.082,0.14-0.166,0.202-0.248   c0.042-0.055,0.085-0.111,0.123-0.164c0.05-0.07,0.095-0.139,0.137-0.203c0.037-0.057,0.08-0.119,0.109-0.17   c0.006-0.008,0.009-0.014,0.014-0.023c0.035-0.057,0.061-0.102,0.083-0.143c0.001-0.002,0.002-0.004,0.003-0.006l0,0   c0.008-0.014,0.021-0.033,0.026-0.045c0.005-0.008,0.003-0.006,0.007-0.014c0.011-0.02,0.016-0.029,0.021-0.037   c0.003-0.008,0.015-0.029,0.015-0.029s2.203-8.418,8.701-8.513c7.711-0.112,8.848,6.646,7.205,8.888   c0.689-0.156,1.326-0.355,1.912-0.602c1.389-0.578,2.492-1.418,3.277-2.572c0.4-0.586,0.65-1.273,0.725-1.985   C93.023,50.818,88.459,49.83,88.125,45.609z M55.998,44.272l-0.021-0.001l-5.011-4.9l1.403-0.821l5.997,4.852   c0.038,0.04,0.081,0.095,0.067,0.132C58.356,43.744,57.55,44.112,55.998,44.272z M70.547,50.613l-0.867,1.692   c-0.158,0.311-0.475,0.512-0.824,0.525l-5.482,0.219c-0.014,0.002-0.027,0.002-0.041,0.002c-0.344,0-0.652-0.174-0.83-0.473   c-0.184-0.311-0.184-0.682,0-0.99l0.947-1.591c0.164-0.276,0.453-0.452,0.775-0.471l5.402-0.321   c0.352-0.022,0.676,0.143,0.869,0.438S70.707,50.299,70.547,50.613z M76.201,47.646c0.011-0.007,0.02-0.014,0.029-0.021   c0.003-0.002,0.006-0.003,0.009-0.005C76.227,47.628,76.214,47.638,76.201,47.646z"/><path d="M24.717,45.204c13.33-0.68,11.537,2.159,13.666,2.19c0.221,0.003,0.518,0.003,0.885,0.001   c-0.098-0.602-0.139-1.405,0.561-2.475c-0.361-0.002-0.646-0.002-0.871-0.007c-0.358,0-0.715-0.01-1.053-0.042   c-0.022-0.032-0.045-0.063-0.068-0.101c-0.449-0.697-0.354-1.58-1.096-1.543c-0.02,0.001-0.039,0.001-0.061,0.003   c-0.26,0.026-0.371,0.225-0.383,0.476c-0.017-0.246,0.09-0.451,0.383-0.476c-5.4,0.228-20.213,1.196-22.842,1.525   c-0.566,0.07-1.041,0.135-1.441,0.197c-0.67,0.206-1.088,0.949-1.375,1.737C14.334,46.103,18.909,45.5,24.717,45.204z"/><polygon points="65.141,52.68 64.791,52.693 66.444,49.693 65.439,49.752 63.797,52.734 63.707,52.738 66.322,52.633    66.174,52.639 67.843,49.61 66.797,49.671  "/><polygon points="66.521,52.625 67.602,52.582 69.283,49.524 68.193,49.589  "/><path d="M69.646,49.502l-0.009,0.001l-1.688,3.065l0.895-0.035c0.242-0.012,0.459-0.15,0.57-0.365l0.867-1.692   c0.111-0.216,0.098-0.467-0.035-0.671S69.889,49.489,69.646,49.502z"/><path d="M64.242,49.824c-0.223,0.013-0.424,0.135-0.537,0.325l-0.947,1.591c-0.127,0.213-0.127,0.471,0,0.684   c0.129,0.215,0.354,0.338,0.604,0.328l0.088-0.004l1.638-2.974L64.242,49.824z"/><polygon points="63.449,52.748 63.707,52.738 63.449,52.748  "/><rect x="65.087" y="49.76" transform="matrix(0.9982 -0.0607 0.0607 0.9982 -2.8984 4.0507)" width="0.354" height="0.003"/><polygon points="66.801,49.665 66.447,49.687 66.444,49.693 66.797,49.671  "/><polygon points="67.848,49.6 67.843,49.61 68.193,49.589 68.199,49.578  "/><polygon points="69.291,49.51 69.283,49.524 69.638,49.503 69.646,49.488  "/><path d="M27.497,48.252c-3.809,0-6.909,3.101-6.909,6.91s3.101,6.908,6.909,6.908c3.81,0,6.908-3.1,6.908-6.908   S31.306,48.252,27.497,48.252z M27.497,60.508c-2.948,0-5.347-2.398-5.347-5.346s2.398-5.346,5.347-5.346   c2.946,0,5.345,2.399,5.345,5.346S30.443,60.508,27.497,60.508z"/><path d="M27.497,50.792c-2.409,0-4.37,1.959-4.37,4.37c0,2.408,1.961,4.369,4.37,4.369s4.369-1.961,4.369-4.369   C31.866,52.752,29.906,50.792,27.497,50.792z M27.497,56.678c-0.837,0-1.517-0.68-1.517-1.516s0.68-1.516,1.517-1.516   c0.835,0,1.515,0.68,1.515,1.516S28.332,56.678,27.497,56.678z"/><circle cx="27.497" cy="55.161" r="0.733"/><path d="M80.17,48.335c-3.809,0-6.909,3.1-6.909,6.909s3.101,6.908,6.909,6.908c3.81,0,6.908-3.1,6.908-6.908   S83.979,48.335,80.17,48.335z M80.17,60.59c-2.948,0-5.347-2.398-5.347-5.346s2.398-5.345,5.347-5.345   c2.946,0,5.345,2.398,5.345,5.345S83.116,60.59,80.17,60.59z"/><path d="M80.17,50.875c-2.409,0-4.37,1.958-4.37,4.369s1.961,4.369,4.37,4.369s4.369-1.959,4.369-4.369S82.579,50.875,80.17,50.875   z M80.17,56.76c-0.837,0-1.517-0.68-1.517-1.516s0.68-1.516,1.517-1.516c0.835,0,1.515,0.68,1.515,1.516S81.005,56.76,80.17,56.76z   "/><circle cx="80.17" cy="55.244" r="0.732"/></g></svg>
