<svg width="87" height="25" viewBox="0 0 87 25" version="1.1" xmlns="http://www.w3.org/2000/svg" xmlns:xlink="http://www.w3.org/1999/xlink">
<title>noun_915873_cc</title>
<desc>Created using Figma</desc>
<g id="Canvas" transform="translate(511 -851)">
<g id="noun_915873_cc">
<g id="Group">
<g id="Vector">
<use xlink:href="#path0_fill" transform="translate(-428.819 858.762)" fill="#767C91"/>
</g>
<g id="Vector">
<use xlink:href="#path1_fill" transform="translate(-509.079 858.109)" fill="#767C91"/>
</g>
<g id="Vector">
<use xlink:href="#path2_fill" transform="translate(-511 864.468)" fill="#767C91"/>
</g>
<g id="Vector">
<use xlink:href="#path3_fill" transform="translate(-477.8 858.218)" fill="#767C91"/>
</g>
<g id="Vector">
<use xlink:href="#path4_fill" transform="translate(-508.678 851)" fill="#767C91"/>
</g>
<g id="Vector">
<use xlink:href="#path5_fill" transform="translate(-506.568 856.379)" fill="#767C91"/>
</g>
<g id="Vector">
<use xlink:href="#path6_fill" transform="translate(-453.883 862.763)" fill="#767C91"/>
</g>
<g id="Vector">
<use xlink:href="#path7_fill" transform="translate(-451.069 862.677)" fill="#767C91"/>
</g>
<g id="Vector">
<use xlink:href="#path8_fill" transform="translate(-449.641 862.654)" fill="#767C91"/>
</g>
<g id="Vector">
<use xlink:href="#path9_fill" transform="translate(-454.928 862.927)" fill="#767C91"/>
</g>
<g id="Vector">
<use xlink:href="#path10_fill" transform="translate(-454.141 865.891)" fill="#767C91"/>
</g>
<g id="Vector">
<use xlink:href="#path11_fill" transform="matrix(0.9982 -0.0607 0.0607 0.9982 -452.498 862.923)" fill="#767C91"/>
</g>
<g id="Vector">
<use xlink:href="#path12_fill" transform="translate(-451.146 862.818)" fill="#767C91"/>
</g>
<g id="Vector">
<use xlink:href="#path13_fill" transform="translate(-449.747 862.731)" fill="#767C91"/>
</g>
<g id="Vector">
<use xlink:href="#path14_fill" transform="translate(-448.307 862.641)" fill="#767C91"/>
</g>
<g id="Vector">
<use xlink:href="#path15_fill" transform="translate(-497.002 861.405)" fill="#767C91"/>
</g>
<g id="Vector">
<use xlink:href="#path16_fill" transform="translate(-494.463 863.945)" fill="#767C91"/>
</g>
<g id="Vector">
<use xlink:href="#path17_fill" transform="translate(-490.826 867.581)" fill="#767C91"/>
</g>
<g id="Vector">
<use xlink:href="#path18_fill" transform="translate(-444.329 861.488)" fill="#767C91"/>
</g>
<g id="Vector">
<use xlink:href="#path19_fill" transform="translate(-441.79 864.028)" fill="#767C91"/>
</g>
<g id="Vector">
<use xlink:href="#path20_fill" transform="translate(-438.152 867.665)" fill="#767C91"/>
</g>
</g>
</g>
</g>
<defs>
<path id="path0_fill" d="M 3.262 1.44C 2.619 0.943 1.479 0.435001 3.72314e-06 1.15967e-06C 0.293004 3.655 4.3 4.511 4.618 4.573C 4.736 3.457 4.339 2.275 3.262 1.44Z"/>
<path id="path1_fill" d="M 1.307 4.641C 1.618 4.028 1.897 0.530001 3.338 1.28174e-06C 1.875 0.271001 1.408 0.525002 1.096 1.145C 0.801 1.727 0.262 3.927 -3.20435e-07 5.033C 0.508 5.059 1.121 5.01 1.307 4.641Z"/>
<path id="path2_fill" d="M 0.854669 0.199391C 0.368669 0.410391 0.145669 1.30639 0.0946688 1.65639C 0.0456688 2.00439 -0.0913312 3.16239 0.0946688 3.53539C 0.282669 3.90839 1.00267 4.45739 2.02467 4.45739C 3.04667 4.45739 3.84067 4.45739 3.84067 4.45739C 3.84067 4.45739 3.13167 1.79339 2.04967 0.000389877C 2.04967 -0.000610123 1.33867 -0.0116088 0.854669 0.199391Z"/>
<path id="path3_fill" d="M 0.0513439 3.351C 0.0523439 3.351 0.0533466 3.351 0.0533466 3.351C 0.0643466 3.423 0.0753448 3.495 0.0843448 3.562C 0.188345 4.245 1.29934 7.281 1.54334 7.861C 1.78734 8.441 1.95934 8.679 4.46034 8.679C 6.95934 8.679 17.8873 8.679 17.8873 8.679C 17.8873 8.679 17.8873 4.101 17.8873 2.985L 17.8863 2.985C 17.8893 1.909 18.2033 -1.37329e-06 15.6183 -1.37329e-06C 15.2643 -1.37329e-06 15.0193 -1.86265e-06 14.5293 0.111998C 14.5293 0.111998 6.21734 0.849998 2.69734 0.715998C 1.77134 0.680998 1.08534 0.673001 0.570345 0.670001C -0.0796551 1.828 -0.0406561 2.699 0.0513439 3.351ZM 0.504343 1.711L 3.94335 1.711C 4.02535 1.711 4.09134 1.884 4.09134 2.098C 4.09134 2.309 4.02535 2.482 3.94335 2.482L 0.504343 2.482C 0.424343 2.482 0.358343 2.309 0.358343 2.098C 0.358343 1.884 0.424343 1.711 0.504343 1.711Z"/>
<path id="path4_fill" d="M 79.213 7.762C 76.522 6.957 72.84 6.365 68.891 6.365C 62.467 6.365 54.016 5.779 52.772 5.779C 51.846 5.779 50.564 5.559 49.967 5.447C 49.932 5.365 49.882 5.28 49.792 5.187L 43.71 0.265L 43.533 0.120999L 43.503 0.0970002L 43.499 0.0999986L 43.344 1.2207e-07C 43.344 1.2207e-07 41.346 1.05 41.122 1.273C 41.106 1.29 41.091 1.309 41.075 1.329C 40.895 1.574 40.874 2.019 40.874 2.019L 45.659 6.546L 45.698 6.583C 45.843 6.598 45.981 6.611 46.116 6.624C 46.292 6.649 46.455 6.665 46.608 6.675L 47.297 6.749L 47.943 6.812C 49.655 7.271 49.536 8.98 49.536 10.01C 49.536 10.015 49.536 10.021 49.536 10.027C 49.536 11.249 49.536 16.258 49.536 16.258C 49.536 16.258 37.786 16.258 35.099 16.258C 32.41 16.258 32.224 15.996 31.962 15.363C 31.7 14.728 30.505 11.405 30.394 10.657C 30.382 10.576 30.369 10.491 30.357 10.402C 29.99 10.405 29.693 10.405 29.472 10.401C 27.343 10.363 29.136 6.941 15.806 7.76C 9.997 8.116 5.423 8.844 2.111 9.553C 1.779 10.649 1.621 11.818 1.455 12.15C 1.269 12.524 0.656 12.574 0.148 12.546C 0.0560004 12.94 -2.97546e-07 13.197 -2.97546e-07 13.197C 1.082 14.988 1.791 17.652 1.791 17.652C 1.791 17.652 2.115 18.673 3.459 18.847C 4.346 18.962 6.428 19.109 8.699 19.224C 8.74 19.226 8.783 19.228 8.824 19.23C 11.277 19.23 10.006 14.125 12.695 11.421C 15.383 8.716 23.076 8.101 25.166 12.553C 27.258 17.006 26.656 19.713 28.152 19.713C 28.257 19.715 28.365 19.717 28.47 19.719C 34.519 19.828 40.874 19.918 45.03 19.918C 52.458 19.918 57.626 19.918 60.19 19.918C 60.26 19.918 60.331 19.918 60.397 19.918C 60.403 19.912 60.411 19.904 60.417 19.898C 60.578 19.873 60.733 19.822 60.883 19.753C 60.885 19.753 60.886 19.753 60.887 19.751C 61.055 19.673 61.212 19.567 61.362 19.45C 61.411 19.411 61.455 19.368 61.502 19.327C 61.597 19.243 61.69 19.157 61.775 19.067C 61.825 19.014 61.871 18.962 61.917 18.907C 61.988 18.825 62.057 18.741 62.119 18.659C 62.161 18.604 62.204 18.548 62.242 18.495C 62.292 18.425 62.337 18.356 62.379 18.292C 62.416 18.235 62.459 18.173 62.488 18.122C 62.494 18.114 62.497 18.108 62.502 18.099C 62.537 18.042 62.563 17.997 62.585 17.956C 62.586 17.954 62.587 17.952 62.588 17.95C 62.596 17.936 62.609 17.917 62.614 17.905C 62.619 17.897 62.617 17.899 62.621 17.891C 62.632 17.871 62.637 17.862 62.642 17.854C 62.645 17.846 62.657 17.825 62.657 17.825C 62.657 17.825 64.86 9.407 71.358 9.312C 79.069 9.2 80.206 15.958 78.563 18.2C 79.252 18.044 79.889 17.845 80.475 17.598C 81.864 17.02 82.967 16.18 83.752 15.026C 84.152 14.44 84.402 13.753 84.477 13.041C 84.111 12.971 79.547 11.983 79.213 7.762ZM 47.086 6.425L 47.065 6.424L 42.054 1.524L 43.457 0.702999L 49.454 5.555C 49.492 5.595 49.535 5.65 49.521 5.687C 49.444 5.897 48.638 6.265 47.086 6.425ZM 61.635 12.766L 60.768 14.458C 60.61 14.769 60.293 14.97 59.944 14.983L 54.462 15.202C 54.448 15.204 54.435 15.204 54.421 15.204C 54.077 15.204 53.769 15.03 53.591 14.731C 53.407 14.42 53.407 14.049 53.591 13.741L 54.538 12.15C 54.702 11.874 54.991 11.698 55.313 11.679L 60.715 11.358C 61.067 11.336 61.391 11.501 61.584 11.796C 61.777 12.091 61.795 12.452 61.635 12.766ZM 67.289 9.799C 67.3 9.792 67.309 9.785 67.318 9.778C 67.321 9.776 67.324 9.775 67.327 9.773C 67.315 9.781 67.302 9.791 67.289 9.799Z"/>
<path id="path5_fill" d="M 13.695 1.97812C 27.025 1.29812 25.232 4.13713 27.361 4.16813C 27.582 4.17113 27.879 4.17113 28.246 4.16913C 28.148 3.56713 28.107 2.76412 28.807 1.69412C 28.446 1.69212 28.161 1.69212 27.936 1.68712C 27.578 1.68712 27.221 1.67712 26.883 1.64512C 26.861 1.61312 26.838 1.58213 26.815 1.54413C 26.366 0.847126 26.461 -0.0358736 25.719 0.00112638C 25.699 0.00212638 25.68 0.00212473 25.658 0.00412474C 25.398 0.0301247 25.287 0.229126 25.275 0.480126C 25.258 0.234126 25.365 0.0291247 25.658 0.00412474C 20.258 0.232125 5.445 1.20013 2.816 1.52913C 2.25 1.59913 1.775 1.66412 1.375 1.72612C 0.705 1.93212 0.287 2.67512 3.12805e-07 3.46312C 3.312 2.87712 7.887 2.27412 13.695 1.97812Z"/>
<path id="path6_fill" d="M 1.434 3.07L 1.084 3.083L 2.737 0.0830008L 1.732 0.141999L 0.0900009 3.124L 7.32422e-07 3.128L 2.615 3.023L 2.467 3.029L 4.136 6.10352e-07L 3.09 0.0610014L 1.434 3.07Z"/>
<path id="path7_fill" d="M 3.72314e-06 3.101L 1.081 3.058L 2.762 -1.7395e-06L 1.672 0.0650007L 3.72314e-06 3.101Z"/>
<path id="path8_fill" d="M 1.697 0.00101759L 1.688 0.00201704L -2.50244e-06 3.06702L 0.895002 3.03202C 1.137 3.02002 1.354 2.88202 1.465 2.66702L 2.332 0.97502C 2.443 0.75902 2.43 0.508019 2.297 0.304019C 2.164 0.100019 1.94 -0.0119824 1.697 0.00101759Z"/>
<path id="path9_fill" d="M 1.57925 0.0500013C 1.35625 0.0630013 1.15525 0.184998 1.04225 0.374998L 0.0952494 1.966C -0.0317506 2.179 -0.0317506 2.437 0.0952494 2.65C 0.224249 2.865 0.44925 2.988 0.69925 2.978L 0.787251 2.974L 2.42525 -1.7395e-06L 1.57925 0.0500013Z"/>
<path id="path10_fill" d="M 1.31226e-06 0.0100011L 0.258001 -1.0376e-06L 1.31226e-06 0.0100011Z"/>
<path id="path11_fill" d="M 0.354002 0L -2.01416e-06 0L -2.01416e-06 0.00300049L 0.354002 0.00300049L 0.354002 0Z"/>
<path id="path12_fill" d="M 0.357002 9.15527e-07L 0.0029986 0.0220003L 2.44141e-07 0.0280008L 0.352997 0.00600143L 0.357002 9.15527e-07Z"/>
<path id="path13_fill" d="M 0.00499957 0.0219985L 2.31934e-06 0.0320006L 0.350001 0.0110007L 0.355998 -8.8501e-07L 0.00499957 0.0219985Z"/>
<path id="path14_fill" d="M 0.00800037 0.0219983L -2.86865e-06 0.0359983L 0.355 0.0149984L 0.363004 -1.0376e-06L 0.00800037 0.0219983Z"/>
<path id="path15_fill" d="M 6.909 -1.09863e-06C 3.1 -1.09863e-06 -6.56128e-07 3.101 -6.56128e-07 6.91C -6.56128e-07 10.719 3.101 13.818 6.909 13.818C 10.719 13.818 13.817 10.718 13.817 6.91C 13.817 3.102 10.718 -1.09863e-06 6.909 -1.09863e-06ZM 6.909 12.256C 3.961 12.256 1.562 9.858 1.562 6.91C 1.562 3.962 3.96 1.564 6.909 1.564C 9.855 1.564 12.254 3.963 12.254 6.91C 12.254 9.857 9.855 12.256 6.909 12.256Z"/>
<path id="path16_fill" d="M 4.37 -1.83105e-07C 1.961 -1.83105e-07 8.08716e-07 1.959 8.08716e-07 4.37C 8.08716e-07 6.778 1.961 8.739 4.37 8.739C 6.779 8.739 8.739 6.778 8.739 4.37C 8.739 1.96 6.779 -1.83105e-07 4.37 -1.83105e-07ZM 4.37 5.886C 3.533 5.886 2.853 5.206 2.853 4.37C 2.853 3.534 3.533 2.854 4.37 2.854C 5.205 2.854 5.885 3.534 5.885 4.37C 5.885 5.206 5.205 5.886 4.37 5.886Z"/>
<path id="path17_fill" d="M 0.733 1.466C 1.13782 1.466 1.466 1.13782 1.466 0.732999C 1.466 0.328175 1.13782 0 0.733 0C 0.328175 0 0 0.328175 0 0.732999C 0 1.13782 0.328175 1.466 0.733 1.466Z"/>
<path id="path18_fill" d="M 6.909 -9.15527e-07C 3.1 -9.15527e-07 1.58691e-06 3.1 1.58691e-06 6.909C 1.58691e-06 10.718 3.101 13.817 6.909 13.817C 10.719 13.817 13.817 10.717 13.817 6.909C 13.817 3.101 10.718 -9.15527e-07 6.909 -9.15527e-07ZM 6.909 12.255C 3.961 12.255 1.562 9.857 1.562 6.909C 1.562 3.961 3.96 1.564 6.909 1.564C 9.855 1.564 12.254 3.962 12.254 6.909C 12.254 9.856 9.855 12.255 6.909 12.255Z"/>
<path id="path19_fill" d="M 4.37 0C 1.961 0 3.05176e-06 1.958 3.05176e-06 4.369C 3.05176e-06 6.78 1.961 8.738 4.37 8.738C 6.779 8.738 8.739 6.779 8.739 4.369C 8.739 1.959 6.779 0 4.37 0ZM 4.37 5.885C 3.533 5.885 2.853 5.205 2.853 4.369C 2.853 3.533 3.533 2.853 4.37 2.853C 5.205 2.853 5.885 3.533 5.885 4.369C 5.885 5.205 5.205 5.885 4.37 5.885Z"/>
<path id="path20_fill" d="M 0.731998 1.464C 1.13627 1.464 1.464 1.13627 1.464 0.731999C 1.464 0.327727 1.13627 0 0.731998 0C 0.327726 0 3.54004e-06 0.327727 3.54004e-06 0.731999C 3.54004e-06 1.13627 0.327726 1.464 0.731998 1.464Z"/>
</defs>
</svg>
