<svg xmlns="http://www.w3.org/2000/svg" xmlns:xlink="http://www.w3.org/1999/xlink" version="1.1" x="0px" y="0px" viewBox="0 0 100 100" style="enable-background:new 0 0 100 100;" xml:space="preserve"><g><path d="M51.7,24.8c-2.3,4-19.3,0-19.3,0v23.3c0,0,16.3,6.3,19.3,0c3-6.3,19.3,0,19.3,0V24.8C71,24.8,54,20.8,51.7,24.8z" fill="#4E9172"/><path d="M29.9,19.7h-2c-0.9,0-1.7,0.8-1.7,1.7c0,0.8,0.6,1.5,1.3,1.6v55.9h2.7V23c0.7-0.2,1.3-0.8,1.3-1.6   C31.6,20.4,30.9,19.7,29.9,19.7z" fill="#4E9172"/></g></svg>
